<svg width="477" height="581" viewBox="0 0 477 581" fill="none" xmlns="http://www.w3.org/2000/svg">
<g clip-path="url(#clip0)">
<rect width="477" height="581" fill="#E5E5E5"/>
<path d="M246.351 213.216H239.547V218.027H246.351V213.216Z" fill="#B0BEC5"/>
<path d="M255.421 213.216H248.617V218.027H255.421V213.216Z" fill="#B0BEC5"/>
<path d="M264.498 213.216H257.694V218.027H264.498V213.216Z" fill="#B0BEC5"/>
<path d="M273.568 213.216H266.764V218.027H273.568V213.216Z" fill="#B0BEC5"/>
<path d="M282.645 213.216H275.841V218.027H282.645V213.216Z" fill="#B0BEC5"/>
<path d="M291.723 213.216H284.918V218.027H291.723V213.216Z" fill="#B0BEC5"/>
<path d="M300.793 213.216H293.988V218.027H300.793V213.216Z" fill="#B0BEC5"/>
<path d="M309.87 213.216H303.065V218.027H309.87V213.216Z" fill="#B0BEC5"/>
<path d="M318.94 213.216H312.136V218.027H318.94V213.216Z" fill="#B0BEC5"/>
<path d="M328.017 213.216H321.213V218.027H328.017V213.216Z" fill="#B0BEC5"/>
<path d="M477 216.556H184.234V562.937H477V216.556Z" fill="url(#paint0_linear)"/>
<path d="M472.167 447.82H189.075V555.396H472.167V447.82Z" fill="#ECEFF1"/>
<path d="M223.277 473.34H212.308V528.458H223.277V473.34Z" fill="#64FFDA"/>
<g opacity="0.7">
<path opacity="0.7" d="M244.934 473.34H233.965V528.458H244.934V473.34Z" fill="#64FFDA"/>
</g>
<g opacity="0.6">
<path opacity="0.6" d="M266.591 473.34H255.622V528.458H266.591V473.34Z" fill="#64FFDA"/>
</g>
<g opacity="0.5">
<path opacity="0.5" d="M288.248 473.34H277.28V528.458H288.248V473.34Z" fill="#64FFDA"/>
</g>
<g opacity="0.5">
<path opacity="0.5" d="M309.906 473.34H298.937V528.458H309.906V473.34Z" fill="#64FFDA"/>
</g>
<g opacity="0.4">
<path opacity="0.4" d="M331.563 473.34H320.594V528.458H331.563V473.34Z" fill="#64FFDA"/>
</g>
<g opacity="0.3">
<path opacity="0.3" d="M353.213 473.34H342.244V528.458H353.213V473.34Z" fill="#64FFDA"/>
</g>
<path d="M432.082 528.603C446.7 528.603 458.551 516.041 458.551 500.544C458.551 485.048 446.7 472.486 432.082 472.486C417.463 472.486 405.612 485.048 405.612 500.544C405.612 516.041 417.463 528.603 432.082 528.603Z" fill="#0078E7"/>
<path d="M472.167 336.057H189.075V443.634H472.167V336.057Z" fill="#ECEFF1"/>
<path d="M223.277 361.577H212.308V416.696H223.277V361.577Z" fill="#64FFDA"/>
<g opacity="0.7">
<path opacity="0.7" d="M244.934 361.577H233.965V416.696H244.934V361.577Z" fill="#64FFDA"/>
</g>
<g opacity="0.6">
<path opacity="0.6" d="M266.591 361.577H255.622V416.696H266.591V361.577Z" fill="#64FFDA"/>
</g>
<g opacity="0.5">
<path opacity="0.5" d="M288.248 361.577H277.28V416.696H288.248V361.577Z" fill="#64FFDA"/>
</g>
<g opacity="0.5">
<path opacity="0.5" d="M309.906 361.577H298.937V416.696H309.906V361.577Z" fill="#64FFDA"/>
</g>
<g opacity="0.4">
<path opacity="0.4" d="M331.563 361.577H320.594V416.696H331.563V361.577Z" fill="#64FFDA"/>
</g>
<g opacity="0.3">
<path opacity="0.3" d="M353.213 361.577H342.244V416.696H353.213V361.577Z" fill="#64FFDA"/>
</g>
<path d="M432.082 416.848C446.7 416.848 458.551 404.286 458.551 388.79C458.551 373.293 446.7 360.731 432.082 360.731C417.463 360.731 405.612 373.293 405.612 388.79C405.612 404.286 417.463 416.848 432.082 416.848Z" fill="#0078E7"/>
<path d="M472.167 224.303H189.075V331.879H472.167V224.303Z" fill="#ECEFF1"/>
<path d="M223.277 249.815H212.308V304.934H223.277V249.815Z" fill="#64FFDA"/>
<g opacity="0.7">
<path opacity="0.7" d="M244.934 249.815H233.965V304.934H244.934V249.815Z" fill="#64FFDA"/>
</g>
<g opacity="0.6">
<path opacity="0.6" d="M266.591 249.815H255.622V304.934H266.591V249.815Z" fill="#64FFDA"/>
</g>
<g opacity="0.5">
<path opacity="0.5" d="M288.248 249.815H277.28V304.934H288.248V249.815Z" fill="#64FFDA"/>
</g>
<g opacity="0.5">
<path opacity="0.5" d="M309.906 249.815H298.937V304.934H309.906V249.815Z" fill="#64FFDA"/>
</g>
<g opacity="0.4">
<path opacity="0.4" d="M331.563 249.815H320.594V304.934H331.563V249.815Z" fill="#64FFDA"/>
</g>
<g opacity="0.3">
<path opacity="0.3" d="M353.213 249.815H342.244V304.934H353.213V249.815Z" fill="#64FFDA"/>
</g>
<path d="M432.081 307.274C447.84 307.274 460.615 293.732 460.615 277.027C460.615 260.322 447.84 246.78 432.081 246.78C416.323 246.78 403.548 260.322 403.548 277.027C403.548 293.732 416.323 307.274 432.081 307.274Z" fill="url(#paint1_linear)"/>
<path d="M432.082 305.086C446.7 305.086 458.551 292.524 458.551 277.027C458.551 261.531 446.7 248.968 432.082 248.968C417.463 248.968 405.612 261.531 405.612 277.027C405.612 292.524 417.463 305.086 432.082 305.086Z" fill="#0078E7"/>
<path d="M339.36 229.251H234.807C233.853 229.251 232.938 228.849 232.264 228.134C231.589 227.419 231.21 226.45 231.21 225.439V219.4C231.21 218.389 231.589 217.419 232.264 216.704C232.938 215.989 233.853 215.588 234.807 215.588H339.36V229.251Z" fill="url(#paint2_linear)"/>
<path d="M339.36 227.642H236.698C235.744 227.642 234.83 227.241 234.155 226.526C233.481 225.811 233.102 224.841 233.102 223.83V220.193C233.102 219.182 233.481 218.212 234.155 217.497C234.83 216.782 235.744 216.381 236.698 216.381H339.36V227.642Z" fill="#B0BEC5"/>
<path d="M72.927 154.949L148.451 225.767L236.202 206.118L229.405 185.158L161.405 193.667L93.3688 130.382C91.7408 128.867 89.8307 127.732 87.7623 127.05C85.6939 126.368 83.5135 126.155 81.3623 126.424C79.2111 126.693 77.1372 127.438 75.2752 128.611C73.4131 129.784 71.8044 131.359 70.5534 133.234C68.3584 136.528 67.3869 140.565 67.8248 144.572C68.2628 148.579 70.0794 152.273 72.927 154.949Z" fill="url(#paint3_linear)"/>
<path d="M236.159 206.118C236.159 206.118 258.542 206.773 266.814 193.674C275.086 180.575 229.362 185.158 229.362 185.158L236.159 206.118Z" fill="url(#paint4_linear)"/>
<path d="M63.0226 108.789C84.5214 108.789 101.95 90.314 101.95 67.5241C101.95 44.7342 84.5214 26.2594 63.0226 26.2594C41.5238 26.2594 24.0956 44.7342 24.0956 67.5241C24.0956 90.314 41.5238 108.789 63.0226 108.789Z" fill="url(#paint5_linear)"/>
<path d="M46.9618 112.716C46.9618 112.716 -3.02767 148.399 9.66749 258.713C11.2133 272.039 10.1208 285.561 6.45954 298.414L-0.013916 320.983C-0.013916 320.983 109.963 323.606 113.049 320.983C114.962 319.359 113.473 277.79 108.107 220.124C104.82 184.799 115.127 135.658 79.6887 108.804L46.9618 112.716Z" fill="url(#paint6_linear)"/>
<path d="M113.062 319.68L161.872 429.055L167.432 540.391H132.835L118.004 425.121L88.3483 369.453L58.6926 540.391H24.0956L34.597 413.333L0 320.991L113.062 319.68Z" fill="url(#paint7_linear)"/>
<path d="M167.439 540.391L177.941 557.417C177.941 557.417 213.185 571.827 197.714 580.992H130.368V540.391H167.439Z" fill="url(#paint8_linear)"/>
<path d="M58.0813 540.391L68.5827 557.417C68.5827 557.417 103.827 571.827 88.3555 580.992H21.01V540.391H58.0813Z" fill="url(#paint9_linear)"/>
<g opacity="0.2">
<path opacity="0.2" d="M63.6413 25.6113C56.9208 25.5967 50.3123 27.4361 44.4655 30.9485C53.6129 26.7252 63.9412 26.3872 73.317 30.0043C82.6928 33.6215 90.4001 40.9175 94.847 50.3856C99.2939 59.8536 100.141 70.7705 97.2127 80.8814C94.2846 90.9923 87.8053 99.525 79.1128 104.717C87.3269 100.945 94.0636 94.2868 98.1879 85.8645C102.312 77.4421 103.572 67.7703 101.755 58.4784C99.9384 49.1864 95.156 40.8422 88.2136 34.8513C81.2712 28.8605 72.5931 25.5891 63.6413 25.5884V25.6113Z" fill="url(#paint10_linear)"/>
</g>
<path d="M110.344 0L99.5113 17.5367C95.6201 23.8424 89.9666 31.0019 82.9681 29.538C79.717 28.8594 77.1132 26.3737 74.5166 24.2007C66.022 17.0488 55.5134 12.1995 44.6668 12.1309C33.8202 12.0622 22.7218 17.2394 16.6152 26.7321C12.091 33.7392 10.5301 42.3855 9.63823 50.8184C7.84724 67.6842 9.63823 87.5922 22.9232 97.0621C23.9961 97.9683 25.3206 98.4748 26.6922 98.5031C28.1307 98.404 29.296 97.4357 30.3749 96.475C47.0045 81.706 56.2687 57.6883 76.2932 47.5475C85.1331 43.0794 97.9937 43.0413 105.122 35.4471C115.623 24.2846 104 10.2704 110.344 0Z" fill="url(#paint11_linear)"/>
<g opacity="0.2">
<path opacity="0.2" d="M70.1938 24.2007C72.7904 26.389 75.387 28.8746 78.6453 29.538C79.9684 29.8161 81.3327 29.7875 82.6444 29.4541C79.5443 28.6916 77.0341 26.2899 74.5238 24.1855C66.0292 17.0335 55.5206 12.1842 44.674 12.1156C43.9116 12.1156 43.1563 12.1156 42.3939 12.1842C52.5357 12.8171 62.2818 17.5367 70.1938 24.2007Z" fill="url(#paint12_linear)"/>
<path opacity="0.2" d="M110.344 0L104.093 10.1332C104.69 18.467 108.143 27.6699 100.82 35.4471C93.6852 43.0718 80.8247 43.0718 71.992 47.5475C51.9459 57.6883 42.696 81.7136 26.0736 96.475C25.5035 97.0039 24.8869 97.4736 24.2323 97.8779C24.9916 98.3184 25.8487 98.5344 26.7138 98.5031C28.1523 98.404 29.3176 97.4357 30.3965 96.475C47.0261 81.706 56.2903 57.6883 76.3148 47.5475C85.1547 43.0794 98.0153 43.0413 105.143 35.4471C115.623 24.2846 104 10.2704 110.344 0Z" fill="url(#paint13_linear)"/>
</g>
<g opacity="0.2">
<path opacity="0.2" d="M108.128 220.132C104.841 184.807 115.148 135.666 79.7098 108.812L72.2078 109.711C106.265 136.764 96.2315 185.196 99.4826 220.147C104.848 277.813 106.344 319.382 104.424 321.006C103.482 321.769 92.5992 322.12 77.9332 322.165C96.7997 322.219 111.955 321.959 113.077 321.006C114.983 319.367 113.487 277.797 108.128 220.132Z" fill="url(#paint14_linear)"/>
</g>
<path d="M51.1619 168.955L126.686 239.773L214.437 220.124L207.575 199.172L139.611 207.688L71.5749 144.404C69.9469 142.889 68.0368 141.754 65.9684 141.072C63.9 140.39 61.7196 140.177 59.5684 140.446C57.4172 140.714 55.3433 141.46 53.4812 142.633C51.6192 143.806 50.0105 145.381 48.7595 147.255C46.572 150.552 45.6076 154.588 46.0508 158.592C46.494 162.595 48.3137 166.285 51.1619 168.955Z" fill="url(#paint15_linear)"/>
<path d="M214.394 220.132C214.394 220.132 236.777 220.788 245.049 207.688C253.321 194.589 207.575 199.172 207.575 199.172L214.394 220.132Z" fill="url(#paint16_linear)"/>
<path d="M64.9719 91.1072H61.0591C52.9275 91.1072 46.3356 98.095 46.3356 106.715V110.863C46.3356 119.483 52.9275 126.47 61.0591 126.47H64.9719C73.1035 126.47 79.6954 119.483 79.6954 110.863V106.715C79.6954 98.095 73.1035 91.1072 64.9719 91.1072Z" fill="url(#paint17_linear)"/>
<g opacity="0.2">
<path opacity="0.2" d="M81.5511 369.453L51.8955 540.391H58.6926L86.6795 379.076L81.5511 369.453Z" fill="url(#paint18_linear)"/>
<path opacity="0.2" d="M161.872 429.055L113.062 319.68L106.301 319.756L155.075 429.055L160.635 540.391H167.432L161.872 429.055Z" fill="url(#paint19_linear)"/>
</g>
<g opacity="0.2">
<path opacity="0.2" d="M177.941 557.425L167.439 540.399H164.347L174.848 557.425C174.848 557.425 210.071 571.85 194.628 581H197.714C213.156 571.85 177.941 557.425 177.941 557.425Z" fill="url(#paint20_linear)"/>
</g>
<g opacity="0.2">
<path opacity="0.2" d="M71.6755 557.425L61.1742 540.399H58.0885L68.5899 557.425C68.5899 557.425 103.834 571.835 88.3627 581H91.4483C106.877 571.85 71.6755 557.425 71.6755 557.425Z" fill="url(#paint21_linear)"/>
</g>
<g opacity="0.2">
<path opacity="0.2" d="M218.796 202.572L217.479 198.516L154.435 206.415L218.796 202.572Z" fill="url(#paint22_linear)"/>
</g>
<path d="M31.051 168.185L52.0466 126.15L87.032 140.164L52.0466 193.735L31.051 168.185Z" fill="url(#paint23_linear)"/>
<path d="M74.603 158.662L148.034 227.543L233.361 208.436L226.751 188.055L160.65 196.335L94.4765 134.758C92.8931 133.285 91.0353 132.181 89.0235 131.518C87.0118 130.855 84.891 130.648 82.7988 130.91C80.7066 131.171 78.6896 131.896 76.8787 133.037C75.0678 134.179 73.5034 135.711 72.2869 137.534C70.1506 140.74 69.2056 144.669 69.633 148.567C70.0604 152.466 71.8301 156.061 74.603 158.662Z" fill="#CA7070"/>
<path d="M233.361 208.428C233.361 208.428 255.133 209.068 263.175 196.328C271.216 183.587 226.751 188.047 226.751 188.047L233.361 208.428Z" fill="#CA7070"/>
<path d="M64.9647 113.768C85.8716 113.768 102.82 95.8015 102.82 73.6391C102.82 51.4766 85.8716 33.5104 64.9647 33.5104C44.0578 33.5104 27.1094 51.4766 27.1094 73.6391C27.1094 95.8015 44.0578 113.768 64.9647 113.768Z" fill="#CA7070"/>
<path d="M49.3349 117.588C49.3349 117.588 0.712123 152.295 13.062 259.59C14.5657 272.553 13.5025 285.706 9.94039 298.209L3.66833 320.16C3.66833 320.16 110.631 322.707 113.638 320.16C115.501 318.582 114.048 278.148 108.833 222.061C105.64 187.704 115.659 139.905 81.1915 113.791L49.3349 117.588Z" fill="#263238"/>
<path d="M113.638 318.879L161.11 425.258L166.512 533.544H132.864L118.443 421.438L89.5998 367.288L60.757 533.544H27.1022L37.3159 409.971L3.66833 320.152L113.638 318.879Z" fill="#5CAADE"/>
<path d="M166.519 533.544L176.732 550.105C176.732 550.105 210.984 564.119 195.959 573.04H130.462V533.544H166.519Z" fill="#263238"/>
<path d="M60.1239 533.544L70.3376 550.105C70.3376 550.105 104.589 564.119 89.5638 573.04H24.1028V533.544H60.1239Z" fill="#263238"/>
<path opacity="0.2" d="M65.569 32.87C59.0304 32.863 52.6028 34.6603 46.9182 38.0852C55.7963 34.0781 65.7828 33.8161 74.837 37.3529C83.8912 40.8896 91.3296 47.9581 95.6321 57.1139C99.9345 66.2696 100.776 76.8215 97.9854 86.6131C95.1944 96.4047 88.9815 104.697 80.6161 109.795C88.6003 106.123 95.1472 99.6467 99.1547 91.4569C103.162 83.2671 104.386 73.8638 102.619 64.8297C100.853 55.7957 96.2045 47.6826 89.4563 41.856C82.7081 36.0295 74.2723 32.8453 65.569 32.8395V32.87Z" fill="white"/>
<path d="M110.984 7.96016L100.454 25.0318C96.6702 31.1315 91.175 38.1234 84.3923 36.7052C81.2275 36.0418 78.7028 33.6553 76.1782 31.4975C67.9065 24.5438 57.6929 19.8242 47.1771 19.7555C36.6613 19.6869 25.8363 24.7268 19.8447 33.9527C15.45 40.7615 13.9323 49.202 13.0548 57.3833C11.3142 73.784 13.0548 93.1506 26.0017 102.369C27.0449 103.247 28.3312 103.737 29.6628 103.764C31.0294 103.665 32.1946 102.727 33.2592 101.789C49.4284 87.4321 58.4337 64.0625 77.926 54.2038C86.5213 49.8577 99.0295 49.8196 105.978 42.4389C116.127 31.5814 104.82 17.9485 110.984 7.96016Z" fill="#263238"/>
<g opacity="0.2">
<path opacity="0.2" d="M71.9633 31.4975C74.4879 33.6248 76.9982 36.0723 80.1774 36.7052C81.4646 36.9766 82.7918 36.9506 84.0687 36.6289C81.0549 35.8664 78.6094 33.579 76.1567 31.5051C67.9066 24.5438 57.6929 19.8241 47.1771 19.7555C46.4579 19.7555 45.7026 19.7555 44.9618 19.8241C54.7655 20.4265 64.2239 24.9784 71.9633 31.4975Z" fill="white"/>
<path opacity="0.2" d="M110.984 7.96016L104.899 17.8189C105.474 25.9239 108.84 34.8524 101.712 42.4389C94.7713 49.8196 82.292 49.8577 73.6607 54.2038C54.1612 64.0625 45.1703 87.4321 28.9939 101.789C28.4395 102.304 27.8397 102.761 27.2029 103.154C27.94 103.583 28.7722 103.793 29.6124 103.764C30.979 103.665 32.1443 102.727 33.2088 101.789C49.378 87.4321 58.3833 64.0625 77.8756 54.2038C86.4709 49.8577 98.9791 49.8196 105.927 42.4389C116.127 31.5814 104.82 17.9485 110.984 7.96016Z" fill="white"/>
</g>
<path opacity="0.2" d="M108.833 222.053C105.64 187.697 115.659 139.897 81.1915 113.783L73.8981 114.66C107.021 140.973 97.2601 188.093 100.425 222.076C105.64 278.163 107.093 318.597 105.23 320.175C104.316 320.938 93.7212 321.258 79.4653 321.304C97.8211 321.357 112.552 321.098 113.645 320.175C115.508 318.574 114.069 278.148 108.833 222.053Z" fill="white"/>
<path d="M53.4275 172.318L126.858 241.168L212.185 222.061L205.575 201.68L139.474 209.961L73.301 148.384C71.7176 146.911 69.8598 145.807 67.8481 145.144C65.8363 144.481 63.7156 144.273 61.6234 144.535C59.5312 144.797 57.5142 145.522 55.7033 146.663C53.8924 147.804 52.3279 149.336 51.1115 151.159C48.967 154.367 48.0172 158.303 48.4447 162.209C48.8723 166.115 50.647 169.715 53.4275 172.318Z" fill="#CA7070"/>
<path d="M212.185 222.053C212.185 222.053 233.958 222.694 241.999 209.953C250.041 197.212 205.575 201.673 205.575 201.673L212.185 222.053Z" fill="#CA7070"/>
<path d="M66.4608 96.5665H63.4614C55.3299 96.5665 48.7379 103.554 48.7379 112.174V115.354C48.7379 123.974 55.3299 130.961 63.4614 130.961H66.4608C74.5924 130.961 81.1843 123.974 81.1843 115.354V112.174C81.1843 103.554 74.5924 96.5665 66.4608 96.5665Z" fill="#CA7070"/>
<g opacity="0.2">
<path opacity="0.2" d="M82.9897 367.288L54.1469 533.544H60.757L87.9742 376.651L82.9897 367.288Z" fill="white"/>
<path opacity="0.2" d="M161.11 425.258L113.638 318.879L107.057 318.955L154.5 425.258L159.901 533.544H166.512L161.11 425.258Z" fill="white"/>
</g>
<path opacity="0.2" d="M176.732 550.112L166.519 533.552H163.512L173.726 550.112C173.726 550.112 207.978 564.127 192.952 573.047H195.959C210.984 564.127 176.732 550.112 176.732 550.112Z" fill="white"/>
<path opacity="0.2" d="M73.3802 550.112L63.1666 533.552H60.124L70.3377 550.112C70.3377 550.112 104.589 564.127 89.5638 573.047H92.5704C107.596 564.127 73.3802 550.112 73.3802 550.112Z" fill="white"/>
<path opacity="0.2" d="M216.465 204.982L215.192 201.04L153.874 208.718L216.465 204.982Z" fill="white"/>
<path d="M33.8706 171.532L54.2836 130.656L88.3123 144.282L54.2836 196.381L33.8706 171.532Z" fill="#263238"/>
<path d="M332.182 217.578L394.039 128.415C394.319 128.011 394.672 127.669 395.077 127.41C395.482 127.151 395.931 126.978 396.398 126.903C396.866 126.828 397.343 126.852 397.802 126.972C398.261 127.093 398.694 127.309 399.074 127.607L401.951 129.856C402.332 130.153 402.654 130.527 402.899 130.956C403.144 131.385 403.306 131.861 403.377 132.357C403.448 132.853 403.426 133.358 403.312 133.845C403.198 134.332 402.995 134.79 402.714 135.193L340.856 224.356L332.182 217.578Z" fill="url(#paint24_linear)"/>
<path d="M333.412 218.531L394.219 130.847C394.499 130.443 394.852 130.102 395.257 129.842C395.661 129.583 396.111 129.411 396.578 129.336C397.046 129.26 397.523 129.284 397.982 129.405C398.441 129.525 398.873 129.741 399.254 130.039L399.549 130.268C399.93 130.565 400.252 130.938 400.497 131.367C400.741 131.797 400.904 132.273 400.975 132.768C401.045 133.264 401.023 133.77 400.909 134.257C400.796 134.743 400.592 135.202 400.311 135.605L339.504 223.288L333.412 218.531Z" fill="#B0BEC5"/>
</g>
<defs>
<linearGradient id="paint0_linear" x1="330.614" y1="562.945" x2="330.614" y2="216.556" gradientUnits="userSpaceOnUse">
<stop stop-color="#808080" stop-opacity="0.25"/>
<stop offset="0.54" stop-color="#808080" stop-opacity="0.12"/>
<stop offset="1" stop-color="#808080" stop-opacity="0.1"/>
</linearGradient>
<linearGradient id="paint1_linear" x1="34684.9" y1="24625.9" x2="34684.9" y2="19826.3" gradientUnits="userSpaceOnUse">
<stop stop-color="#808080" stop-opacity="0.25"/>
<stop offset="0.54" stop-color="#808080" stop-opacity="0.12"/>
<stop offset="1" stop-color="#808080" stop-opacity="0.1"/>
</linearGradient>
<linearGradient id="paint2_linear" x1="72157.3" y1="5266.54" x2="72157.3" y2="5022.24" gradientUnits="userSpaceOnUse">
<stop stop-color="#808080" stop-opacity="0.25"/>
<stop offset="0.54" stop-color="#808080" stop-opacity="0.12"/>
<stop offset="1" stop-color="#808080" stop-opacity="0.1"/>
</linearGradient>
<linearGradient id="paint3_linear" x1="80879.1" y1="36437.5" x2="80879.1" y2="23461.5" gradientUnits="userSpaceOnUse">
<stop stop-color="#808080" stop-opacity="0.25"/>
<stop offset="0.54" stop-color="#808080" stop-opacity="0.12"/>
<stop offset="1" stop-color="#808080" stop-opacity="0.1"/>
</linearGradient>
<linearGradient id="paint4_linear" x1="23840.4" y1="7562.35" x2="23840.4" y2="6942.27" gradientUnits="userSpaceOnUse">
<stop stop-color="#808080" stop-opacity="0.25"/>
<stop offset="0.54" stop-color="#808080" stop-opacity="0.12"/>
<stop offset="1" stop-color="#808080" stop-opacity="0.1"/>
</linearGradient>
<linearGradient id="paint5_linear" x1="6845.67" y1="11801.6" x2="6845.67" y2="2869.4" gradientUnits="userSpaceOnUse">
<stop stop-color="#808080" stop-opacity="0.25"/>
<stop offset="0.54" stop-color="#808080" stop-opacity="0.12"/>
<stop offset="1" stop-color="#808080" stop-opacity="0.1"/>
</linearGradient>
<linearGradient id="paint6_linear" x1="39574" y1="104970" x2="39574" y2="45269.7" gradientUnits="userSpaceOnUse">
<stop stop-color="#808080" stop-opacity="0.25"/>
<stop offset="0.54" stop-color="#808080" stop-opacity="0.12"/>
<stop offset="1" stop-color="#808080" stop-opacity="0.1"/>
</linearGradient>
<linearGradient id="paint7_linear" x1="19487.4" y1="156747" x2="19487.4" y2="92857.3" gradientUnits="userSpaceOnUse">
<stop stop-color="#808080" stop-opacity="0.25"/>
<stop offset="0.54" stop-color="#808080" stop-opacity="0.12"/>
<stop offset="1" stop-color="#808080" stop-opacity="0.1"/>
</linearGradient>
<linearGradient id="paint8_linear" x1="35709.3" y1="34280.2" x2="35709.3" y2="32117.8" gradientUnits="userSpaceOnUse">
<stop stop-color="#808080" stop-opacity="0.25"/>
<stop offset="0.54" stop-color="#808080" stop-opacity="0.12"/>
<stop offset="1" stop-color="#808080" stop-opacity="0.1"/>
</linearGradient>
<linearGradient id="paint9_linear" x1="24763.7" y1="34280.2" x2="24763.7" y2="32117.8" gradientUnits="userSpaceOnUse">
<stop stop-color="#808080" stop-opacity="0.25"/>
<stop offset="0.54" stop-color="#808080" stop-opacity="0.12"/>
<stop offset="1" stop-color="#808080" stop-opacity="0.1"/>
</linearGradient>
<linearGradient id="paint10_linear" x1="21577.5" y1="16355.4" x2="21577.5" y2="8143.42" gradientUnits="userSpaceOnUse">
<stop stop-color="#808080" stop-opacity="0.25"/>
<stop offset="0.54" stop-color="#808080" stop-opacity="0.12"/>
<stop offset="1" stop-color="#808080" stop-opacity="0.1"/>
</linearGradient>
<linearGradient id="paint11_linear" x1="35603.4" y1="19523.3" x2="35603.4" y2="6796.72" gradientUnits="userSpaceOnUse">
<stop stop-color="#808080" stop-opacity="0.25"/>
<stop offset="0.54" stop-color="#808080" stop-opacity="0.12"/>
<stop offset="1" stop-color="#808080" stop-opacity="0.1"/>
</linearGradient>
<linearGradient id="paint12_linear" x1="14345.8" y1="1914.36" x2="14345.8" y2="1507.53" gradientUnits="userSpaceOnUse">
<stop stop-color="#808080" stop-opacity="0.25"/>
<stop offset="0.54" stop-color="#808080" stop-opacity="0.12"/>
<stop offset="1" stop-color="#808080" stop-opacity="0.1"/>
</linearGradient>
<linearGradient id="paint13_linear" x1="31192.2" y1="19523.9" x2="31192.2" y2="6796.92" gradientUnits="userSpaceOnUse">
<stop stop-color="#808080" stop-opacity="0.25"/>
<stop offset="0.54" stop-color="#808080" stop-opacity="0.12"/>
<stop offset="1" stop-color="#808080" stop-opacity="0.1"/>
</linearGradient>
<linearGradient id="paint14_linear" x1="16642.5" y1="104977" x2="16642.5" y2="45272.9" gradientUnits="userSpaceOnUse">
<stop stop-color="#808080" stop-opacity="0.25"/>
<stop offset="0.54" stop-color="#808080" stop-opacity="0.12"/>
<stop offset="1" stop-color="#808080" stop-opacity="0.1"/>
</linearGradient>
<linearGradient id="paint15_linear" x1="75762.6" y1="38272.7" x2="75762.6" y2="25299.7" gradientUnits="userSpaceOnUse">
<stop stop-color="#808080" stop-opacity="0.25"/>
<stop offset="0.54" stop-color="#808080" stop-opacity="0.12"/>
<stop offset="1" stop-color="#808080" stop-opacity="0.1"/>
</linearGradient>
<linearGradient id="paint16_linear" x1="22667.4" y1="7975.78" x2="22667.4" y2="7355.91" gradientUnits="userSpaceOnUse">
<stop stop-color="#808080" stop-opacity="0.25"/>
<stop offset="0.54" stop-color="#808080" stop-opacity="0.12"/>
<stop offset="1" stop-color="#808080" stop-opacity="0.1"/>
</linearGradient>
<linearGradient id="paint17_linear" x1="2969.33" y1="5956.81" x2="2969.33" y2="4316.66" gradientUnits="userSpaceOnUse">
<stop stop-color="#808080" stop-opacity="0.25"/>
<stop offset="0.54" stop-color="#808080" stop-opacity="0.12"/>
<stop offset="1" stop-color="#808080" stop-opacity="0.1"/>
</linearGradient>
<linearGradient id="paint18_linear" x1="3402.64" y1="121520" x2="3402.64" y2="83197.2" gradientUnits="userSpaceOnUse">
<stop stop-color="#808080" stop-opacity="0.25"/>
<stop offset="0.54" stop-color="#808080" stop-opacity="0.12"/>
<stop offset="1" stop-color="#808080" stop-opacity="0.1"/>
</linearGradient>
<linearGradient id="paint19_linear" x1="11738.9" y1="156747" x2="11738.9" y2="92857.3" gradientUnits="userSpaceOnUse">
<stop stop-color="#808080" stop-opacity="0.25"/>
<stop offset="0.54" stop-color="#808080" stop-opacity="0.12"/>
<stop offset="1" stop-color="#808080" stop-opacity="0.1"/>
</linearGradient>
<linearGradient id="paint20_linear" x1="19656.6" y1="34280.1" x2="19656.6" y2="32117.7" gradientUnits="userSpaceOnUse">
<stop stop-color="#808080" stop-opacity="0.25"/>
<stop offset="0.54" stop-color="#808080" stop-opacity="0.12"/>
<stop offset="1" stop-color="#808080" stop-opacity="0.1"/>
</linearGradient>
<linearGradient id="paint21_linear" x1="14037.2" y1="34280.1" x2="14037.2" y2="32117.7" gradientUnits="userSpaceOnUse">
<stop stop-color="#808080" stop-opacity="0.25"/>
<stop offset="0.54" stop-color="#808080" stop-opacity="0.12"/>
<stop offset="1" stop-color="#808080" stop-opacity="0.1"/>
</linearGradient>
<linearGradient id="paint22_linear" x1="16852.8" y1="2336.98" x2="16852.8" y2="2255.14" gradientUnits="userSpaceOnUse">
<stop stop-color="#808080" stop-opacity="0.25"/>
<stop offset="0.54" stop-color="#808080" stop-opacity="0.12"/>
<stop offset="1" stop-color="#808080" stop-opacity="0.1"/>
</linearGradient>
<linearGradient id="paint23_linear" x1="4625.97" y1="17298.8" x2="4625.97" y2="11308.1" gradientUnits="userSpaceOnUse">
<stop stop-color="#808080" stop-opacity="0.25"/>
<stop offset="0.54" stop-color="#808080" stop-opacity="0.12"/>
<stop offset="1" stop-color="#808080" stop-opacity="0.1"/>
</linearGradient>
<linearGradient id="paint24_linear" x1="55876.2" y1="35537.3" x2="55876.2" y2="23076.4" gradientUnits="userSpaceOnUse">
<stop stop-color="#808080" stop-opacity="0.25"/>
<stop offset="0.54" stop-color="#808080" stop-opacity="0.12"/>
<stop offset="1" stop-color="#808080" stop-opacity="0.1"/>
</linearGradient>
<clipPath id="clip0">
<rect width="477" height="581" fill="white"/>
</clipPath>
</defs>
</svg>
